<?xml version="1.0" encoding="UTF-8" standalone="no"?>
<!-- Created with Inkscape (http://www.inkscape.org/) -->

<svg
   width="52.585155mm"
   height="49.79232mm"
   viewBox="0 0 52.585155 49.79232"
   version="1.1"
   id="svg7550"
   inkscape:version="1.1.2 (0a00cf5339, 2022-02-04)"
   sodipodi:docname="jug-genova.svg"
   xmlns:inkscape="http://www.inkscape.org/namespaces/inkscape"
   xmlns:sodipodi="http://sodipodi.sourceforge.net/DTD/sodipodi-0.dtd"
   xmlns="http://www.w3.org/2000/svg"
   xmlns:svg="http://www.w3.org/2000/svg">
  <sodipodi:namedview
     id="namedview7552"
     pagecolor="#ffffff"
     bordercolor="#666666"
     borderopacity="1.0"
     inkscape:pageshadow="2"
     inkscape:pageopacity="0.0"
     inkscape:pagecheckerboard="0"
     inkscape:document-units="mm"
     showgrid="false"
     fit-margin-top="1"
     fit-margin-left="1"
     fit-margin-bottom="1"
     fit-margin-right="1"
     inkscape:zoom="1.9387835"
     inkscape:cx="150.09412"
     inkscape:cy="159.1204"
     inkscape:window-width="1920"
     inkscape:window-height="1020"
     inkscape:window-x="319"
     inkscape:window-y="1112"
     inkscape:window-maximized="1"
     inkscape:current-layer="layer1" />
  <defs
     id="defs7547" />
  <g
     inkscape:label="Layer 1"
     inkscape:groupmode="layer"
     id="layer1"
     transform="translate(-22.730806,-7.3775694)">
    <g
       id="g682"
       transform="matrix(0.35277777,0,0,0.35277777,8.7515076,-3.7390074)">
      <path
         d="m 82.539,111.367 c -27.25,11.184 44.992,11.184 69.668,10.156"
         style="fill:none;stroke:#34459e;stroke-width:2.96257;stroke-linecap:butt;stroke-linejoin:round;stroke-miterlimit:4;stroke-dasharray:none;stroke-opacity:1"
         id="path684" />
    </g>
    <g
       id="g686"
       transform="matrix(0.35277777,0,0,0.35277777,8.7515076,-3.7390074)">
      <path
         d="m 90.613,121.523 c -4.754,3.594 -15.781,9.786 56.274,7.731"
         style="fill:none;stroke:#34459e;stroke-width:2.96257;stroke-linecap:butt;stroke-linejoin:round;stroke-miterlimit:4;stroke-dasharray:none;stroke-opacity:1"
         id="path688" />
    </g>
    <g
       id="g690"
       transform="matrix(0.35277777,0,0,0.35277777,8.7515076,-3.7390074)">
      <path
         d="m 98.508,130.551 c -10.352,8.211 24.09,7.297 42.633,6.566"
         style="fill:none;stroke:#34459e;stroke-width:2.96257;stroke-linecap:butt;stroke-linejoin:round;stroke-miterlimit:4;stroke-dasharray:none;stroke-opacity:1"
         id="path692" />
    </g>
    <g
       id="g694"
       transform="matrix(0.35277777,0,0,0.35277777,8.7515076,-3.7390074)"
       style="stroke:#f92f1b;stroke-opacity:1">
      <path
         d="m 114.328,54.566 c -6.176,5.899 -8.555,12.055 -3.562,18.211 0,0 16.871,-0.257 30.418,-0.511 -0.954,-7.954 3.089,-12.313 8.078,-17.954 -16.871,-0.257 -21.387,0 -34.934,0.254 z"
         style="fill:none;stroke:#f92f1b;stroke-width:2.96257;stroke-linecap:round;stroke-linejoin:round;stroke-miterlimit:4;stroke-dasharray:none;stroke-opacity:1"
         id="path696" />
    </g>
    <g
       id="g698"
       transform="matrix(0.35277777,0,0,0.35277777,8.7515076,-3.7390074)">
      <path
         d="M 103.547,59.898 C 74.789,71.695 60.77,90.16 51.738,104.523 c 15.45,-1.793 27.805,-1.539 43.965,1.028 -7.605,-13.336 -1.711,-33.598 7.844,-45.653 z"
         style="fill:none;stroke:#f92f1b;stroke-width:2.96257;stroke-linecap:round;stroke-linejoin:round;stroke-miterlimit:4;stroke-dasharray:none;stroke-opacity:1"
         id="path700" />
    </g>
    <g
       id="g702"
       transform="matrix(0.35277777,0,0,0.35277777,8.7515076,-3.7390074)">
      <path
         d="m 108.816,82.164 c 14.02,-0.461 22.289,-0.512 35.407,-0.102 -4.563,7.95 -11.024,18.672 -3.754,30.469 -13.164,-0.511 -24.571,-0.719 -36.739,-0.101 -7.222,-10.668 0.239,-23.957 5.086,-30.266 z"
         style="fill:none;stroke:#f92f1b;stroke-width:2.96257;stroke-linecap:round;stroke-linejoin:round;stroke-miterlimit:4;stroke-dasharray:none;stroke-opacity:1"
         id="path704" />
    </g>
    <g
       id="g706"
       transform="matrix(0.35277777,0,0,0.35277777,8.7515076,-3.7390074)">
      <path
         d="m 142.703,103.711 c 7.844,0.305 7.699,0.254 17.207,1.281 -4.851,-13.39 4.848,-36.062 14.731,-45.91 -11.407,3.18 -18.536,6.77 -27.946,13.953"
         style="fill:none;stroke:#f92f1b;stroke-width:2.96257;stroke-linecap:round;stroke-linejoin:miter;stroke-miterlimit:4;stroke-dasharray:none;stroke-opacity:1"
         id="path708" />
    </g>
    <g
       id="g710"
       transform="matrix(0.32686025,0,0,0.35277777,8.7515076,-3.7390074)">
      <path
         d="m 134.937,44.309 c 0.316,-3.286 1.438,-5.95 3.191,-8.938"
         style="fill:none;stroke:#ea1919;stroke-width:2.46223;stroke-linecap:butt;stroke-linejoin:miter;stroke-miterlimit:4;stroke-dasharray:none;stroke-opacity:1"
         id="path712" />
    </g>
    <g
       id="g714"
       transform="matrix(0.32686025,0,0,0.35277777,8.7515076,-3.7390074)">
      <path
         d="m 117.495,40.09 c 14.942,-1.375 21.51,-0.348 27.084,0.933"
         style="fill:none;stroke:#ea1919;stroke-width:2.46223;stroke-linecap:butt;stroke-linejoin:miter;stroke-miterlimit:4;stroke-dasharray:none;stroke-opacity:1"
         id="path716" />
    </g>
    <g
       id="g718"
       transform="matrix(0.32686025,0,0,0.35277777,8.7515076,-3.7390074)">
      <path
         d="m 143.554,47.797 c 0.616,-5.129 1.139,-7.387 4.309,-11.492 -14.157,-2.051 -18.673,-1.844 -32.623,4.515 13.542,1.848 19.149,3.762 28.314,6.977 z"
         style="fill:none;stroke:#000000;stroke-width:1.64149;stroke-linecap:butt;stroke-linejoin:miter;stroke-miterlimit:4;stroke-dasharray:none;stroke-opacity:1"
         id="path720" />
    </g>
    <path
       d="m 26.936144,49.574357 h -0.60078 v 4.449938 c 0,1.023762 -0.340431,1.548695 -0.989542,1.548695 -0.592667,0 -0.981075,-0.402167 -1.02235,-1.059745 h -0.592666 c 0.04974,1.033639 0.649111,1.656645 1.606902,1.656645 0.632531,0 1.111956,-0.289631 1.362781,-0.84067 0.138994,-0.281163 0.235655,-0.832202 0.235655,-1.304925 v -4.449938"
       style="fill:#000000;fill-opacity:1;fill-rule:nonzero;stroke:none;stroke-width:0.352778"
       id="path722" />
    <path
       d="m 28.173689,49.574357 v 4.037894 c 0,0.832203 0.121003,1.322917 0.421569,1.751542 0.357011,0.498827 0.957792,0.796219 1.615017,0.796219 0.665691,0 1.265061,-0.297392 1.622072,-0.796219 0.300214,-0.428625 0.422981,-0.919339 0.422981,-1.751542 v -4.037894 h -0.600781 v 4.037894 c 0,0.587022 -0.08961,1.033286 -0.275519,1.339497 -0.227542,0.377472 -0.674159,0.613128 -1.160287,0.613128 -0.496358,0 -0.941211,-0.235656 -1.168752,-0.613128 -0.187325,-0.306211 -0.276931,-0.752475 -0.276931,-1.339497 v -4.037894 h -0.599369"
       style="fill:#000000;fill-opacity:1;fill-rule:nonzero;stroke:none;stroke-width:0.352778"
       id="path724" />
    <path
       d="m 35.535102,53.060859 v 0.585611 h 3.351389 c -0.0896,0.420512 -0.2921,0.779992 -0.63253,1.147939 -0.463197,0.498828 -1.095728,0.770467 -1.794228,0.770467 -1.467556,0 -2.627842,-1.208617 -2.627842,-2.749197 0,-1.559983 1.143706,-2.758722 2.620786,-2.758722 0.924984,0 1.703564,0.45473 2.116667,1.242836 h 0.674158 c -0.396875,-1.103842 -1.533877,-1.838325 -2.840213,-1.838325 -1.784703,0 -3.180645,1.462264 -3.180645,3.336219 0,1.891947 1.427692,3.362325 3.261783,3.362325 0.949678,0 1.761067,-0.384175 2.337153,-1.093964 0.486481,-0.605014 0.746831,-1.278819 0.787047,-2.005189 h -4.073525"
       style="fill:#000000;fill-opacity:1;fill-rule:nonzero;stroke:none;stroke-width:0.352778"
       id="path726" />
    <path
       d="m 44.854786,53.060859 v 0.585611 h 3.349977 c -0.08819,0.420512 -0.2921,0.779992 -0.63253,1.147939 -0.463197,0.498828 -1.095375,0.770467 -1.792817,0.770467 -1.468966,0 -2.629253,-1.208617 -2.629253,-2.749197 0,-1.559983 1.143706,-2.758722 2.621139,-2.758722 0.924631,0 1.703211,0.45473 2.117725,1.242836 h 0.672747 c -0.396875,-1.103842 -1.532466,-1.838325 -2.838802,-1.838325 -1.786114,0 -3.182056,1.462264 -3.182056,3.336219 0,1.891947 1.429103,3.362325 3.261783,3.362325 0.949678,0 1.76142,-0.384175 2.337153,-1.093964 0.487892,-0.605014 0.747184,-1.278819 0.787047,-2.005189 h -4.072113"
       style="fill:#000000;fill-opacity:1;fill-rule:nonzero;stroke:none;stroke-width:0.352778"
       id="path728" />
    <path
       d="m 54.210099,53.865898 c 0,-0.656166 -0.08114,-1.059744 -0.300214,-1.480255 -0.396875,-0.762 -1.167341,-1.242836 -2.011891,-1.242836 -1.290109,0 -2.304345,1.093963 -2.304345,2.487436 0,1.417814 1.030817,2.529769 2.34562,2.529769 0.567619,0 1.10243,-0.227189 1.50883,-0.639233 0.315736,-0.32385 0.527756,-0.655814 0.649111,-1.05022 h -0.625475 c -0.250825,0.656167 -0.875241,1.094317 -1.549047,1.094317 -0.909461,0 -1.679928,-0.752475 -1.727905,-1.698978 h 4.015316 m -4.000147,-0.587375 c 0.162278,-0.918986 0.836436,-1.54058 1.679575,-1.54058 0.860072,0 1.517297,0.587022 1.721203,1.54058 h -3.400778"
       style="fill:#000000;fill-opacity:1;fill-rule:nonzero;stroke:none;stroke-width:0.352778"
       id="path730" />
    <path
       d="m 55.041244,56.047123 h 0.60078 v -2.636308 c 0,-0.534458 0.06491,-0.814211 0.235656,-1.08585 0.234244,-0.367947 0.649111,-0.587022 1.119011,-0.587022 0.43815,0 0.836436,0.192969 1.078794,0.516819 0.212373,0.297745 0.292453,0.6477 0.292453,1.27882 v 2.513541 h 0.600781 v -2.513541 c 0,-0.806098 -0.104775,-1.234723 -0.388761,-1.646767 -0.349956,-0.472722 -0.884767,-0.744008 -1.510242,-0.744008 -0.5842,0 -1.0541,0.24518 -1.427692,0.735894 v -0.623005 h -0.60078 v 4.791427"
       style="fill:#000000;fill-opacity:1;fill-rule:nonzero;stroke:none;stroke-width:0.352778"
       id="path732" />
    <path
       d="m 62.14513,51.142807 c -1.314803,0 -2.329039,1.076325 -2.329039,2.477558 0,1.471789 0.997655,2.539647 2.377016,2.539647 1.298223,0 2.256014,-1.059392 2.256014,-2.49555 0,-1.461911 -0.974372,-2.521655 -2.303991,-2.521655 m 0,0.595136 c 0.972608,0 1.694744,0.822677 1.694744,1.934986 0,1.095375 -0.697089,1.891947 -1.663347,1.891947 -1.02235,0 -1.7526,-0.806097 -1.7526,-1.926519 0,-1.08585 0.738364,-1.900414 1.721203,-1.900414"
       style="fill:#000000;fill-opacity:1;fill-rule:nonzero;stroke:none;stroke-width:0.352778"
       id="path734" />
    <path
       d="m 66.716071,56.047123 h 0.632531 l 1.865841,-4.791427 h -0.607836 l -1.591733,4.029427 -1.557161,-4.029427 h -0.608895 l 1.867253,4.791427"
       style="fill:#000000;fill-opacity:1;fill-rule:nonzero;stroke:none;stroke-width:0.352778"
       id="path736" />
    <path
       d="m 74.315963,51.255696 h -0.601134 v 0.850194 c -0.43815,-0.665339 -0.981075,-0.963083 -1.7526,-0.963083 -1.329972,0 -2.335741,1.08585 -2.335741,2.521655 0,1.427692 1.014236,2.49555 2.377016,2.49555 0.755298,0 1.241425,-0.271286 1.711325,-0.953558 v 0.840669 h 0.601134 v -4.791427 m -2.337153,0.482247 c 0.974019,0 1.736019,0.822677 1.736019,1.8923 0,1.08585 -0.745419,1.934633 -1.703211,1.934633 -1.005769,0 -1.777647,-0.848783 -1.777647,-1.944511 0,-1.041753 0.779992,-1.882422 1.744839,-1.882422"
       style="fill:#000000;fill-opacity:1;fill-rule:nonzero;stroke:none;stroke-width:0.352778"
       id="path738" />
  </g>
</svg>
